HIERARCHY
ROOT Hips
{
	OFFSET 0.00000 0.00000 0.00000
	CHANNELS 6 Xposition Yposition Zposition Zrotation Yrotation Xrotation 
	JOINT LHipJoint
	{
		OFFSET 0 0 0
		CHANNELS 3 Zrotation Yrotation Xrotation
		JOINT LeftHip
		{
			OFFSET 1.57093 -1.69714 0.87455
			CHANNELS 3 Zrotation Yrotation Xrotation
			JOINT LeftKnee
			{
				OFFSET 2.48056 -6.81529 0.00000
				CHANNELS 3 Zrotation Yrotation Xrotation
				JOINT LeftAnkle
				{
					OFFSET 2.62558 -7.21374 0.00000
					CHANNELS 3 Zrotation Yrotation Xrotation
					JOINT LeftToe
					{
						OFFSET 0.17911 -0.49210 2.16707
						CHANNELS 3 Zrotation Yrotation Xrotation
						End Site
						{
							OFFSET 0.00000 -0.00000 1.11848
						}
					}
				}
			}
		}
	}
	JOINT RHipJoint
	{
		OFFSET 0 0 0
		CHANNELS 3 Zrotation Yrotation Xrotation
		JOINT RightHip
		{
			OFFSET -1.69739 -1.69715 0.87455
			CHANNELS 3 Zrotation Yrotation Xrotation
			JOINT RightKnee
			{
				OFFSET -2.33658 -6.41972 0.00000
				CHANNELS 3 Zrotation Yrotation Xrotation
				JOINT RightAnkle
				{
					OFFSET -2.60856 -7.16696 0.00000
					CHANNELS 3 Zrotation Yrotation Xrotation
					JOINT RightToe
					{
						OFFSET -0.20854 -0.57296 2.11053
						CHANNELS 3 Zrotation Yrotation Xrotation
						End Site
						{
							OFFSET -0.00000 -0.00000 1.09848
						}
					}
				}
			}
		}
	}
	JOINT lowerback
	{
		OFFSET 0 0 0
		CHANNELS 3 Zrotation Yrotation Xrotation
		JOINT Chest
		{
			OFFSET 0.02563 2.15732 -0.03270
			CHANNELS 3 Zrotation Yrotation Xrotation
			JOINT Chest2
			{
				OFFSET 0.00281 2.14662 0.09285
				CHANNELS 3 Zrotation Yrotation Xrotation
				JOINT lowerneck
				{
					OFFSET 0 0 0
					CHANNELS 3 Zrotation Yrotation Xrotation
					JOINT Neck
					{
						OFFSET -0.04440 1.68397 0.17601
						CHANNELS 3 Zrotation Yrotation Xrotation
						JOINT Head
						{
							OFFSET 0.06040 1.66995 -0.35615
							CHANNELS 3 Zrotation Yrotation Xrotation
							End Site
							{
								OFFSET 0.02405 1.72189 -0.14044
							}
						}
					}
				}
				JOINT LeftCollar
				{
					OFFSET 0 0 0
					CHANNELS 3 Zrotation Yrotation Xrotation
					JOINT LeftShoulder
					{
						OFFSET 2.98955 1.90907 -0.21660
CHANNELS 3 Zrotation Xrotation Yrotation
						JOINT LeftElbow
						{
OFFSET 0 -4.913770 0.000000
CHANNELS 3 Zrotation Xrotation Yrotation
							JOINT LeftWrist
							{
OFFSET 0 -3.002910 -0.000000
CHANNELS 3 Zrotation Xrotation Yrotation
								JOINT lhand
								{
									OFFSET 0 0 0
CHANNELS 3 Zrotation Xrotation Yrotation
									JOINT LFingers
									{
OFFSET 0 -0.450920 -0.000000
CHANNELS 3 Zrotation Xrotation Yrotation
										End Site
										{
OFFSET 0 -0.363550 -0.000000
										}
									}
								}
								JOINT LThumb
								{
OFFSET 0 0.000000 0.000000
CHANNELS 3 Zrotation Xrotation Yrotation
									End Site
									{
OFFSET 0 -0.369100 0.369100
									}
								}
							}
						}
					}
				}
				JOINT RightCollar
				{
					OFFSET 0 0 0
					CHANNELS 3 Zrotation Yrotation Xrotation
					JOINT RightShoulder
					{
						OFFSET -2.80452 1.90886 -0.21152
CHANNELS 3 Zrotation Xrotation Yrotation
						JOINT RightElbow
						{
OFFSET 0 -4.867250 0.000000
CHANNELS 3 Zrotation Xrotation Yrotation
							JOINT RightWrist
							{
OFFSET 0 -3.171440 -0.000000
CHANNELS 3 Zrotation Xrotation Yrotation
								JOINT rhand
								{
									OFFSET 0 0 0
CHANNELS 3 Zrotation Xrotation Yrotation
									JOINT RFingers
									{
OFFSET 0 -0.419370 -0.000000
CHANNELS 3 Zrotation Xrotation Yrotation
										End Site
										{
OFFSET 0 -0.338100 -0.000000
										}
									}
								}
								JOINT RThumb
								{
OFFSET 0 0.000000 0.000000
CHANNELS 3 Zrotation Xrotation Yrotation
									End Site
									{
OFFSET 0 -0.343270 0.343270
									}
								}
							}
						}
					}
				}
			}
		}
	}
}
MOTION
Frames: 4
Frame Time: 0.008333333333333333
3.774293 13.838459 9.792296 172.023369 1.895854 63.844283 0.000000 0.000000 0.000000 -23.609455 12.991317 42.339325 1.845247 8.535817 24.353970 3.574512 -1.198652 36.280659 0.027962 -1.071918 -2.946706 0.000000 0.000000 0.000000 26.510640 9.054564 32.153924 -0.721655 -5.427759 15.132821 -0.666479 -16.523948 17.436595 -1.526075 -7.799964 22.108187 7.911889 -6.716696 36.038843 -8.866688 -4.733605 8.749996 -12.143492 -1.237110 -9.964147 0.448487 1.987688 -8.778265 1.532911 4.083298 31.557986 1.207154 3.091834 11.718588 0.000000 0.000000 0.000000 122.523246 -46.504616 -82.694235 16.341026 -25.980870 3.794123 16.338323 -104.299134 -13.534882 0.000000 0.000000 0.000000 -7.125000 0.000000 0.000000 -10.116092 43.827696 -0.295832 0.000000 0.000000 0.000000 -23.964927 53.944840 1.633530 -79.957495 -59.615440 -51.314168 -61.979532 -30.203884 -22.520776 0.000000 0.000000 0.000000 7.125000 0.000000 0.000000 -19.014605 -9.502427 -23.092536
3.803438 13.857329 9.802150 172.144384 0.985917 63.492225 0.000000 0.000000 0.000000 -21.192294 15.243201 41.941173 2.253664 9.374868 26.975786 3.817450 -2.498234 37.928441 0.063601 -1.626579 -4.474864 0.000000 0.000000 0.000000 26.764604 8.339383 32.854977 -0.466944 -4.381681 12.153172 -0.305181 -16.570271 14.492653 -1.293471 -7.205639 20.326115 8.043698 -6.740657 36.581517 -9.113189 -4.606992 8.877755 -12.549742 -1.118715 -10.031016 1.295600 2.358731 -8.505462 0.292370 4.823658 31.054073 0.673288 3.368854 11.521410 0.000000 0.000000 0.000000 128.133494 -46.195624 -74.742573 16.270155 -25.885577 3.763182 16.625453 -98.980033 -14.059377 0.000000 0.000000 0.000000 -7.125000 0.000000 0.000000 -9.984457 44.394413 -0.150850 0.000000 0.000000 0.000000 -21.752757 54.918620 5.589855 -78.831485 -59.523238 -50.343282 -61.996312 -27.930116 -22.180520 0.000000 0.000000 0.000000 7.125000 0.000000 0.000000 -19.124165 -9.037845 -23.113120
3.828031 13.855351 9.782353 172.750591 -0.129887 62.437085 0.000000 0.000000 0.000000 -19.230174 16.827250 41.114029 2.789480 10.345241 30.103066 3.864802 -1.604181 37.855263 0.025154 -1.019202 -2.801604 0.000000 0.000000 0.000000 27.126306 7.081292 35.063775 -0.270066 -3.340678 9.228965 -0.009409 -16.210669 11.481751 -1.220184 -7.006452 19.734488 7.487339 -6.837890 38.028162 -9.236074 -4.688055 8.977120 -12.324436 -1.052074 -10.420346 1.787344 2.594083 -8.067574 -0.889894 5.469047 30.714664 0.219774 3.599648 11.360198 0.000000 0.000000 0.000000 132.869648 -45.639942 -67.258879 16.220851 -25.819152 3.741667 17.269852 -93.408185 -14.714802 0.000000 0.000000 0.000000 -7.125000 0.000000 0.000000 -9.561327 45.139460 0.033049 0.000000 0.000000 0.000000 -21.047387 55.034441 10.124139 -75.870110 -59.231039 -47.794876 -60.973849 -26.528416 -21.725418 0.000000 0.000000 0.000000 7.125000 0.000000 0.000000 -18.715572 -7.611838 -22.170154
3.846785 13.841526 9.743823 173.770484 -1.449749 61.102168 0.000000 0.000000 0.000000 -18.202769 17.477354 39.706818 3.328400 11.207771 32.984846 3.787028 0.018287 36.971222 0.000878 -0.018026 -0.049602 0.000000 0.000000 0.000000 27.420089 5.400792 37.950232 -0.160016 -2.576309 7.101280 0.175688 -16.137273 9.424267 -1.245625 -7.076524 19.942304 6.502640 -6.876744 39.708001 -9.360695 -4.791218 9.122935 -11.883333 -0.930306 -10.655238 2.252735 2.702956 -7.772644 -1.779323 5.829974 30.390326 -0.151185 3.728348 11.227554 0.000000 0.000000 0.000000 137.533035 -44.965730 -59.655592 16.203546 -25.795832 3.734089 17.749511 -87.032702 -15.393189 0.000000 0.000000 0.000000 -7.125000 0.000000 0.000000 -9.293084 45.893448 0.206626 0.000000 0.000000 0.000000 -20.677896 54.110723 14.244224 -70.666799 -58.535993 -43.339614 -59.381799 -26.010057 -21.190120 0.000000 0.000000 0.000000 7.125000 0.000000 0.000000 -18.022891 -5.711674 -20.734299
